<svg width="416" height="416" viewBox="0 0 416 416" fill="none" xmlns="http://www.w3.org/2000/svg">
<g clip-path="url(#clip0_31_1215)">
<rect width="416" height="416" fill="#003EFF"/>
<path d="M240.604 40.7642H174.95L53.5464 376.091H116.502L124.065 353.752C133.925 324.597 158.269 302.389 188.358 296.31C194.648 295.035 201.142 294.386 207.773 294.386C214.405 294.386 220.898 295.035 227.188 296.31C257.277 302.396 281.622 324.597 291.482 353.752L299.044 376.091H362L240.596 40.7642H240.604ZM207.773 248.373C189.704 248.373 172.325 251.733 156.262 257.899L158.764 250.348L185.305 172.812C196.081 140.829 207.337 92.1416 207.337 92.1416H208.217C208.217 92.1416 219.473 140.829 230.249 172.812L256.79 250.348L259.291 257.899C243.229 251.733 225.85 248.373 207.78 248.373H207.773Z" fill="white"/>
</g>
<defs>
<clipPath id="clip0_31_1215">
<rect width="416" height="416" fill="white"/>
</clipPath>
</defs>
</svg>
